<?xml version="1.0" encoding="UTF-8" standalone="no"?><!-- Generator: Gravit.io --><svg xmlns="http://www.w3.org/2000/svg" xmlns:xlink="http://www.w3.org/1999/xlink" style="isolation:isolate" viewBox="-0.026 0.004 42.943 42.943" width="42.943pt" height="42.943pt"><path d=" M 21.476 0.005 C 12.789 -0.008 4.951 5.215 1.618 13.237 C -1.715 21.259 0.114 30.499 6.252 36.646 C 12.39 42.794 21.627 44.637 29.654 41.315 C 37.681 37.994 42.916 30.163 42.916 21.477 C 42.923 9.628 33.325 0.016 21.476 0.005 Z  M 32.796 16.521 C 32.334 18.285 31.287 19.84 29.826 20.933 C 29.916 21.026 29.996 21.115 30.076 21.215 C 31.233 22.775 31.605 24.782 31.086 26.654 C 30.041 30.539 26.587 33.291 22.566 33.444 L 17.186 33.444 C 15.064 33.511 13.034 32.575 11.706 30.918 C 10.386 29.137 9.965 26.844 10.566 24.711 L 13.576 12.633 C 14.037 10.86 15.615 9.607 17.446 9.561 L 27.516 9.561 C 29.208 9.524 30.821 10.272 31.886 11.586 C 32.938 13.001 33.274 14.823 32.796 16.521 L 32.796 16.521 Z  M 27.516 13.167 L 17.446 13.167 C 17.277 13.217 17.138 13.34 17.066 13.502 L 14.066 25.581 C 13.728 26.637 13.906 27.791 14.546 28.697 C 15.199 29.469 16.176 29.892 17.186 29.838 L 22.566 29.838 C 24.929 29.682 26.939 28.058 27.586 25.781 C 27.841 24.987 27.711 24.12 27.236 23.436 C 26.753 22.872 26.037 22.564 25.296 22.601 C 25.256 22.601 25.206 22.608 25.166 22.608 L 19.546 22.608 L 19.546 22.59 L 20.446 19 L 25.166 19 C 25.196 19 25.236 19 25.266 19 L 25.266 19 L 25.306 19 C 27.192 18.793 28.769 17.474 29.306 15.656 C 29.506 15.034 29.41 14.355 29.046 13.814 C 28.666 13.37 28.1 13.131 27.516 13.167 L 27.516 13.167 Z " fill-rule="evenodd" fill="rgb(255,103,103)"/></svg>